<?xml version="1.0" encoding="UTF-8"?>
<svg xmlns="http://www.w3.org/2000/svg" xmlns:xlink="http://www.w3.org/1999/xlink" width="300pt" height="300pt" viewBox="0 0 300 300" version="1.1">
<g id="surface96">
<path style=" stroke:none;fill-rule:evenodd;fill:rgb(0%,0%,0%);fill-opacity:1;" d="M 150 149 L 150 5.480469 C 111.9375 5.480469 75.429688 20.601563 48.515625 47.515625 C 21.601563 74.429688 6.480469 110.9375 6.480469 149 C 6.480469 187.0625 21.601563 223.570313 48.515625 250.484375 C 75.429688 277.398438 111.9375 292.519531 150 292.519531 Z M 150 149 "/>
<path style=" stroke:none;fill-rule:evenodd;fill:rgb(0%,0%,0%);fill-opacity:1;" d="M 221.761719 78 C 221.761719 58.96875 214.199219 40.714844 200.742188 27.257813 C 187.285156 13.800781 169.03125 6.238281 150 6.238281 C 130.96875 6.238281 112.714844 13.800781 99.257813 27.257813 C 85.800781 40.714844 78.238281 58.96875 78.238281 78 C 78.238281 97.03125 85.800781 115.285156 99.257813 128.742188 C 112.714844 142.199219 130.96875 149.761719 150 149.761719 C 169.03125 149.761719 187.285156 142.199219 200.742188 128.742188 C 214.199219 115.285156 221.761719 97.03125 221.761719 78 Z M 221.761719 78 "/>
<path style=" stroke:none;fill-rule:evenodd;fill:rgb(99.998474%,99.998474%,99.998474%);fill-opacity:1;" d="M 221.761719 221 C 221.761719 201.96875 214.199219 183.714844 200.742188 170.257813 C 187.285156 156.800781 169.03125 149.238281 150 149.238281 C 130.96875 149.238281 112.714844 156.800781 99.257813 170.257813 C 85.800781 183.714844 78.238281 201.96875 78.238281 221 C 78.238281 240.03125 85.800781 258.285156 99.257813 271.742188 C 112.714844 285.199219 130.96875 292.761719 150 292.761719 C 169.03125 292.761719 187.285156 285.199219 200.742188 271.742188 C 214.199219 258.285156 221.761719 240.03125 221.761719 221 Z M 221.761719 221 "/>
<path style=" stroke:none;fill-rule:evenodd;fill:rgb(99.998474%,99.998474%,99.998474%);fill-opacity:1;" d="M 164.351563 78 C 164.351563 74.195313 162.839844 70.542969 160.148438 67.851563 C 157.457031 65.160156 153.804688 63.648438 150 63.648438 C 146.195313 63.648438 142.542969 65.160156 139.851563 67.851563 C 137.160156 70.542969 135.648438 74.195313 135.648438 78 C 135.648438 81.804688 137.160156 85.457031 139.851563 88.148438 C 142.542969 90.839844 146.195313 92.351563 150 92.351563 C 153.804688 92.351563 157.457031 90.839844 160.148438 88.148438 C 162.839844 85.457031 164.351563 81.804688 164.351563 78 Z M 164.351563 78 "/>
<path style=" stroke:none;fill-rule:evenodd;fill:rgb(0%,0%,0%);fill-opacity:1;" d="M 164.351563 221 C 164.351563 217.195313 162.839844 213.542969 160.148438 210.851563 C 157.457031 208.160156 153.804688 206.648438 150 206.648438 C 146.195313 206.648438 142.542969 208.160156 139.851563 210.851563 C 137.160156 213.542969 135.648438 217.195313 135.648438 221 C 135.648438 224.804688 137.160156 228.457031 139.851563 231.148438 C 142.542969 233.839844 146.195313 235.351563 150 235.351563 C 153.804688 235.351563 157.457031 233.839844 160.148438 231.148438 C 162.839844 228.457031 164.351563 224.804688 164.351563 221 Z M 164.351563 221 "/>
<path style="fill:none;stroke-width:1;stroke-linecap:square;stroke-linejoin:miter;stroke:rgb(0%,0%,0%);stroke-opacity:1;stroke-miterlimit:3.25;" d="M 367.519531 162 C 367.519531 123.9375 352.398438 87.429688 325.484375 60.515625 C 298.570313 33.601563 262.0625 18.480469 224 18.480469 C 185.9375 18.480469 149.429688 33.601563 122.515625 60.515625 C 95.601563 87.429688 80.480469 123.9375 80.480469 162 C 80.480469 200.0625 95.601563 236.570313 122.515625 263.484375 C 149.429688 290.398438 185.9375 305.519531 224 305.519531 C 262.0625 305.519531 298.570313 290.398438 325.484375 263.484375 C 352.398438 236.570313 367.519531 200.0625 367.519531 162 Z M 367.519531 162 " transform="matrix(1,0,0,1,-74,-13)"/>
</g>
</svg>
